# xmcd
#
# Track frame offsets: 
#        150
#        13625
#        26962
#        38790
#        49612
#        64435
#        77197
#        90815
#        101212
#        114250
#        125452
#        138582
#        151315
#        160587
#        172267
#        183305
#        196535
#        210132
#        225087
#        237397
#
# Disc length: 3340 seconds
#
# Revision: 3
# Processed by: cddbd v1.5.2PL0 Copyright (c) Steve Scherf et al.
# Submitted via: ExactAudioCopy v1.0b3
#
DISCID=f80d0a14
DTITLE=Kim Weston - Kim Weston Greatest Hits and Rare Classics
DYEAR=1900
DGENRE=
TTITLE0=Kim Weston and Marvin Gaye -- It Takes Two
TTITLE1=Kim Weston -- Take Me In Your Arms (Rock Me A Little While)
TTITLE2=Kim Weston -- Helpless
TTITLE3=Kim Weston -- Do Like I Do
TTITLE4=Kim Weston and Marvin Gaye -- Teach Me Tonight
TTITLE5=Kim Weston -- I'm Still Lovin' You
TTITLE6=Kim Weston -- A Little More Love
TTITLE7=Kim Weston -- It Should Have Been Me
TTITLE8=Kim Weston -- Love Me All The Way
TTITLE9=Kim Weston -- Looking For The Right Guy
TTITLE10=Kim Weston and Marvin Gaye -- What Good Am I Without You
TTITLE11=Kim Weston --A Love Like Yours (Don't Come Knocking Everyday)
TTITLE12=Kim Weston -- Another Train Coming
TTITLE13=Kim Weston -- Feel Alright Tonight
TTITLE14=Kim Weston and Marvin Gaye -- Baby (Don't You Leave Me)
TTITLE15=Kim Weston -- I'll Never See My Love Again
TTITLE16=Kim Weston -- A Thrill A Moment
TTITLE17=Kim Weston -- Just Loving You
TTITLE18=Kim Weston -- Don't Compare Me With Her
TTITLE19=Kim Weston -- Go Ahead And Laugh
EXTD=
EXTT0=
EXTT1=
EXTT2=
EXTT3=
EXTT4=
EXTT5=
EXTT6=
EXTT7=
EXTT8=
EXTT9=
EXTT10=
EXTT11=
EXTT12=
EXTT13=
EXTT14=
EXTT15=
EXTT16=
EXTT17=
EXTT18=
EXTT19=
PLAYORDER=
